<?xml version="1.0" encoding="UTF-8" standalone="no"?>
<!-- Created with Inkscape (http://www.inkscape.org/) -->

<svg
   xmlns:dc="http://purl.org/dc/elements/1.1/"
   xmlns:cc="http://creativecommons.org/ns#"
   xmlns:rdf="http://www.w3.org/1999/02/22-rdf-syntax-ns#"
   xmlns:svg="http://www.w3.org/2000/svg"
   xmlns="http://www.w3.org/2000/svg"
   xmlns:sodipodi="http://sodipodi.sourceforge.net/DTD/sodipodi-0.dtd"
   xmlns:inkscape="http://www.inkscape.org/namespaces/inkscape"
   width="738.15094"
   height="363.1839"
   id="svg2"
   version="1.1"
   inkscape:version="0.48.5 r10040"
   sodipodi:docname="mengerProperty.svg">
  <defs
     id="defs4" />
  <sodipodi:namedview
     id="base"
     pagecolor="#ffffff"
     bordercolor="#666666"
     borderopacity="1.0"
     inkscape:pageopacity="0.0"
     inkscape:pageshadow="2"
     inkscape:zoom="0.7"
     inkscape:cx="189.03621"
     inkscape:cy="221.29514"
     inkscape:document-units="px"
     inkscape:current-layer="g3847"
     showgrid="false"
     fit-margin-top="5"
     fit-margin-left="5"
     fit-margin-right="5"
     fit-margin-bottom="5"
     inkscape:window-width="1198"
     inkscape:window-height="632"
     inkscape:window-x="4"
     inkscape:window-y="5"
     inkscape:window-maximized="0" />
  <metadata
     id="metadata7">
    <rdf:RDF>
      <cc:Work
         rdf:about="">
        <dc:format>image/svg+xml</dc:format>
        <dc:type
           rdf:resource="http://purl.org/dc/dcmitype/StillImage" />
        <dc:title></dc:title>
      </cc:Work>
    </rdf:RDF>
  </metadata>
  <g
     inkscape:label="Layer 1"
     inkscape:groupmode="layer"
     id="layer1"
     transform="translate(-103.73506,-145.30131)">
    <text
       xml:space="preserve"
       style="font-size:72px;font-style:normal;font-weight:normal;line-height:125%;letter-spacing:0px;word-spacing:0px;fill:#000000;fill-opacity:1;stroke:none;font-family:Sans"
       x="30.304577"
       y="424.0473"
       id="text3839"
       sodipodi:linespacing="125%"><tspan
         sodipodi:role="line"
         id="tspan3841"
         x="30.304577"
         y="424.0473" /></text>
    <g
       id="g3847">
      <rect
         style="fill:#ffffda;fill-opacity:1;stroke:#fffd4a;stroke-width:2;stroke-linecap:round;stroke-miterlimit:4;stroke-opacity:1;stroke-dasharray:none;stroke-dashoffset:0"
         id="rect3103"
         width="132.85715"
         height="132.85715"
         x="130.57114"
         y="173.65846" />
      <path
         inkscape:connector-curvature="0"
         id="path3805"
         d="m 715.188,239.50504 c 117.17773,0 119.19803,0 119.19803,0"
         style="fill:none;stroke:#000000;stroke-width:5;stroke-linecap:butt;stroke-linejoin:miter;stroke-miterlimit:4;stroke-opacity:1;stroke-dasharray:5, 15;stroke-dashoffset:0" />
      <path
         style="fill:none;stroke:#000000;stroke-width:5;stroke-linecap:butt;stroke-linejoin:miter;stroke-miterlimit:4;stroke-opacity:1;stroke-dasharray:5, 15;stroke-dashoffset:0"
         d="m 715.188,430.44418 c 117.17773,0 119.19803,0 119.19803,0"
         id="path3809"
         inkscape:connector-curvature="0" />
      <rect
         y="369.62805"
         x="130.57114"
         height="132.85715"
         width="132.85715"
         id="rect3106"
         style="fill:#ffffda;fill-opacity:1;stroke:#fffd4a;stroke-width:2;stroke-linecap:round;stroke-miterlimit:4;stroke-opacity:1;stroke-dasharray:none;stroke-dashoffset:0" />
      <rect
         y="173.65846"
         x="324.85684"
         height="132.85715"
         width="132.85715"
         id="rect3108"
         style="fill:#ffffda;fill-opacity:1;stroke:#fffd4a;stroke-width:2;stroke-linecap:round;stroke-miterlimit:4;stroke-opacity:1;stroke-dasharray:none;stroke-dashoffset:0" />
      <rect
         style="fill:#ffffda;fill-opacity:1;stroke:#fffd4a;stroke-width:2;stroke-linecap:round;stroke-miterlimit:4;stroke-opacity:1;stroke-dasharray:none;stroke-dashoffset:0"
         id="rect3110"
         width="132.85715"
         height="132.85715"
         x="324.85684"
         y="369.62805" />
      <rect
         style="fill:#ffffda;fill-opacity:1;stroke:#fffd4a;stroke-width:2;stroke-linecap:round;stroke-miterlimit:4;stroke-opacity:1;stroke-dasharray:none;stroke-dashoffset:0"
         id="rect3112"
         width="132.85715"
         height="132.85715"
         x="517.71399"
         y="173.65846" />
      <rect
         y="369.62805"
         x="517.71399"
         height="132.85715"
         width="132.85715"
         id="rect3114"
         style="fill:#ffffda;fill-opacity:1;stroke:#fffd4a;stroke-width:2;stroke-linecap:round;stroke-miterlimit:4;stroke-opacity:1;stroke-dasharray:none;stroke-dashoffset:0" />
      <path
         sodipodi:type="arc"
         style="fill:#ff00ff;fill-opacity:0.09803922;stroke:#000000;stroke-width:1;stroke-linecap:round;stroke-miterlimit:4;stroke-opacity:1;stroke-dasharray:none;stroke-dashoffset:0"
         id="path3116"
         sodipodi:cx="122.85714"
         sodipodi:cy="115.72961"
         sodipodi:rx="27.142857"
         sodipodi:ry="37.857143"
         d="m 150,115.72961 c 0,20.90792 -12.15227,37.85714 -27.14286,37.85714 -14.99059,0 -27.142857,-16.94922 -27.142857,-37.85714 0,-20.907926 12.152267,-37.857147 27.142857,-37.857147 14.99059,0 27.14286,16.949221 27.14286,37.857147 z"
         transform="translate(23.428271,85.785991)" />
      <path
         transform="matrix(0.01279715,-0.68117766,1.4542916,0.73211815,-5.0199806,243.33254)"
         d="m 150,115.72961 c 0,20.90792 -12.15227,37.85714 -27.14286,37.85714 -14.99059,0 -27.142857,-16.94922 -27.142857,-37.85714 0,-20.907926 12.152267,-37.857147 27.142857,-37.857147 14.99059,0 27.14286,16.949221 27.14286,37.857147 z"
         sodipodi:ry="37.857143"
         sodipodi:rx="27.142857"
         sodipodi:cy="115.72961"
         sodipodi:cx="122.85714"
         id="path3886"
         style="fill:#ff00ff;fill-opacity:0.09803922;stroke:#000000;stroke-width:1;stroke-linecap:round;stroke-miterlimit:4;stroke-opacity:1;stroke-dasharray:none;stroke-dashoffset:0"
         sodipodi:type="arc" />
      <path
         sodipodi:type="arc"
         style="fill:#ff00ff;fill-opacity:0.09803922;stroke:#000000;stroke-width:1;stroke-linecap:round;stroke-miterlimit:4;stroke-opacity:1;stroke-dasharray:none;stroke-dashoffset:0"
         id="path3888"
         sodipodi:cx="122.85714"
         sodipodi:cy="115.72961"
         sodipodi:rx="27.142857"
         sodipodi:ry="37.857143"
         d="m 150,115.72961 c 0,20.90792 -12.15227,37.85714 -27.14286,37.85714 -14.99059,0 -27.142857,-16.94922 -27.142857,-37.85714 0,-20.907926 12.152267,-37.857147 27.142857,-37.857147 14.99059,0 27.14286,16.949221 27.14286,37.857147 z"
         transform="matrix(0.67343984,0.70707582,-0.47425975,0.98696619,107.00584,74.710791)" />
      <path
         sodipodi:type="arc"
         style="fill:#ff00ff;fill-opacity:0.09803922;stroke:#000000;stroke-width:1;stroke-linecap:round;stroke-miterlimit:4;stroke-opacity:1;stroke-dasharray:none;stroke-dashoffset:0"
         id="path3892"
         sodipodi:cx="187.85715"
         sodipodi:cy="195.01532"
         sodipodi:rx="69.285713"
         sodipodi:ry="41.42857"
         d="m 257.14286,195.01532 c 0,22.88037 -31.02027,41.42857 -69.28571,41.42857 -38.26545,0 -69.28572,-18.5482 -69.28572,-41.42857 0,-22.88037 31.02027,-41.42857 69.28572,-41.42857 38.26544,0 69.28571,18.5482 69.28571,41.42857 z"
         transform="translate(23.428271,85.785991)" />
      <path
         sodipodi:type="arc"
         style="fill:#ff00ff;fill-opacity:0.09803922;stroke:#000000;stroke-width:1;stroke-linecap:round;stroke-miterlimit:4;stroke-opacity:1;stroke-dasharray:none;stroke-dashoffset:0"
         id="path3894"
         sodipodi:cx="172.85715"
         sodipodi:cy="122.15818"
         sodipodi:rx="45.714287"
         sodipodi:ry="51.42857"
         d="m 218.57143,122.15818 c 0,28.40322 -20.46698,51.42857 -45.71428,51.42857 -25.24731,0 -45.71429,-23.02535 -45.71429,-51.42857 0,-28.403215 20.46698,-51.42857 45.71429,-51.42857 25.2473,0 45.71428,23.025355 45.71428,51.42857 z"
         transform="translate(23.428271,85.785991)" />
      <path
         sodipodi:type="arc"
         style="fill:#ff00ff;fill-opacity:0.09803922;stroke:#000000;stroke-width:1;stroke-linecap:round;stroke-miterlimit:4;stroke-opacity:1;stroke-dasharray:none;stroke-dashoffset:0"
         id="path3896"
         sodipodi:cx="225.71428"
         sodipodi:cy="125.01532"
         sodipodi:rx="35.714287"
         sodipodi:ry="52.857143"
         d="m 261.42857,125.01532 c 0,29.19219 -15.98983,52.85714 -35.71429,52.85714 -19.72446,0 -35.71429,-23.66495 -35.71429,-52.85714 0,-29.192194 15.98983,-52.857144 35.71429,-52.857144 19.72446,0 35.71429,23.66495 35.71429,52.857144 z"
         transform="translate(23.428271,85.785991)" />
      <path
         sodipodi:type="arc"
         style="fill:#ff00ff;fill-opacity:0.09803922;stroke:#000000;stroke-width:1;stroke-linecap:round;stroke-miterlimit:4;stroke-opacity:1;stroke-dasharray:none;stroke-dashoffset:0"
         id="path3898"
         sodipodi:cx="131.42857"
         sodipodi:cy="212.15819"
         sodipodi:rx="31.428572"
         sodipodi:ry="24.285715"
         d="m 162.85715,212.15819 c 0,13.41263 -14.07106,24.28571 -31.42858,24.28571 C 114.07105,236.4439 100,225.57082 100,212.15819 c 0,-13.41263 14.07105,-24.28572 31.42857,-24.28572 17.35752,0 31.42858,10.87309 31.42858,24.28572 z"
         transform="translate(23.428271,85.785991)" />
      <path
         transform="translate(23.428271,85.785991)"
         style="fill:#ff00ff;fill-opacity:1;stroke:#000000;stroke-width:1;stroke-linecap:round;stroke-miterlimit:4;stroke-opacity:1;stroke-dashoffset:0"
         d="M 167.14286,356.44388 120,340.7296 l -4.28571,-45.71429 48.57143,17.14286 z"
         id="path3902"
         inkscape:connector-curvature="0"
         sodipodi:nodetypes="ccccc" />
      <path
         sodipodi:type="arc"
         style="fill:#00ffff;fill-opacity:0.09803922;stroke:#000000;stroke-width:1;stroke-linecap:round;stroke-miterlimit:4;stroke-opacity:1;stroke-dasharray:none;stroke-dashoffset:0"
         id="path3905"
         sodipodi:cx="360.71429"
         sodipodi:cy="98.586754"
         sodipodi:rx="73.571426"
         sodipodi:ry="15"
         d="m 434.28572,98.586754 c 0,8.284276 -32.93905,14.999996 -73.57143,14.999996 -40.63237,0 -73.57142,-6.71572 -73.57142,-14.999996 0,-8.284271 32.93905,-15 73.57142,-15 40.63238,0 73.57143,6.715729 73.57143,15 z"
         transform="translate(19.142557,78.643134)" />
      <path
         sodipodi:type="arc"
         style="fill:#00ffff;fill-opacity:0.09803922;stroke:#000000;stroke-width:1;stroke-linecap:round;stroke-miterlimit:4;stroke-opacity:1;stroke-dasharray:none;stroke-dashoffset:0"
         id="path3907"
         sodipodi:cx="320"
         sodipodi:cy="146.44389"
         sodipodi:rx="30"
         sodipodi:ry="52.857143"
         d="m 350,146.44389 c 0,29.1922 -13.43146,52.85715 -30,52.85715 -16.56854,0 -30,-23.66495 -30,-52.85715 0,-29.19219 13.43146,-52.85714 30,-52.85714 16.56854,0 30,23.66495 30,52.85714 z"
         transform="translate(23.428271,85.785991)" />
      <path
         sodipodi:type="arc"
         style="fill:#00ffff;fill-opacity:0.09803922;stroke:#000000;stroke-width:1;stroke-linecap:round;stroke-miterlimit:4;stroke-opacity:1;stroke-dasharray:none;stroke-dashoffset:0"
         id="path3909"
         sodipodi:cx="342.85715"
         sodipodi:cy="202.87247"
         sodipodi:rx="51.42857"
         sodipodi:ry="30.714285"
         d="m 394.28572,202.87247 c 0,16.96303 -23.02536,30.71428 -51.42857,30.71428 -28.40322,0 -51.42857,-13.75125 -51.42857,-30.71428 0,-16.96303 23.02535,-30.71429 51.42857,-30.71429 28.40321,0 51.42857,13.75126 51.42857,30.71429 z"
         transform="translate(23.428271,85.785991)" />
      <path
         sodipodi:type="arc"
         style="fill:#00ffff;fill-opacity:0.09803922;stroke:#000000;stroke-width:1;stroke-linecap:round;stroke-miterlimit:4;stroke-opacity:1;stroke-dasharray:none;stroke-dashoffset:0"
         id="path3911"
         sodipodi:cx="411.42856"
         sodipodi:cy="195.72961"
         sodipodi:rx="38.57143"
         sodipodi:ry="42.142857"
         d="m 449.99999,195.72961 c 0,23.27486 -17.26902,42.14286 -38.57143,42.14286 -21.30241,0 -38.57143,-18.868 -38.57143,-42.14286 0,-23.27485 17.26902,-42.14285 38.57143,-42.14285 21.30241,0 38.57143,18.868 38.57143,42.14285 z"
         transform="translate(23.428271,85.785991)" />
      <path
         sodipodi:type="arc"
         style="fill:#00ffff;fill-opacity:0.09803922;stroke:#000000;stroke-width:1;stroke-linecap:round;stroke-miterlimit:4;stroke-opacity:1;stroke-dasharray:none;stroke-dashoffset:0"
         id="path3913"
         sodipodi:cx="374.28571"
         sodipodi:cy="151.44389"
         sodipodi:rx="60"
         sodipodi:ry="9.2857141"
         d="m 434.28571,151.44389 c 0,5.12836 -26.86292,9.28572 -60,9.28572 -33.13709,0 -60,-4.15736 -60,-9.28572 0,-5.12835 26.86291,-9.28571 60,-9.28571 33.13708,0 60,4.15736 60,9.28571 z"
         transform="translate(23.428271,85.785991)" />
      <path
         sodipodi:type="arc"
         style="fill:#00ffff;fill-opacity:0.09803922;stroke:#000000;stroke-width:1;stroke-linecap:round;stroke-miterlimit:4;stroke-opacity:1;stroke-dasharray:none;stroke-dashoffset:0"
         id="path3915"
         sodipodi:cx="366.42856"
         sodipodi:cy="121.44389"
         sodipodi:rx="36.42857"
         sodipodi:ry="25"
         d="m 402.85713,121.44389 c 0,13.80712 -16.30963,25 -36.42857,25 -20.11895,0 -36.42857,-11.19288 -36.42857,-25 0,-13.80712 16.30962,-24.999997 36.42857,-24.999997 20.11894,0 36.42857,11.192877 36.42857,24.999997 z"
         transform="matrix(1.3497636,-0.75901726,0.15969166,0.65107051,-124.12868,406.28694)" />
      <path
         sodipodi:type="arc"
         style="fill:#00ffff;fill-opacity:0.09803922;stroke:#000000;stroke-width:1;stroke-linecap:round;stroke-miterlimit:4;stroke-opacity:1;stroke-dasharray:none;stroke-dashoffset:0"
         id="path3917"
         sodipodi:cx="348.57144"
         sodipodi:cy="110.01532"
         sodipodi:rx="12.857142"
         sodipodi:ry="15"
         d="m 361.42858,110.01532 c 0,8.28427 -5.75633,15 -12.85714,15 -7.1008,0 -12.85714,-6.71573 -12.85714,-15 0,-8.28427 5.75634,-15 12.85714,-15 7.10081,0 12.85714,6.71573 12.85714,15 z"
         transform="translate(23.428271,85.785991)" />
      <path
         sodipodi:type="arc"
         style="fill:#00ffff;fill-opacity:0.09803922;stroke:#000000;stroke-width:1;stroke-linecap:round;stroke-miterlimit:4;stroke-opacity:1;stroke-dasharray:none;stroke-dashoffset:0"
         id="path3919"
         sodipodi:cx="415.71429"
         sodipodi:cy="129.30104"
         sodipodi:rx="28.571428"
         sodipodi:ry="45.714287"
         d="m 444.28572,129.30104 c 0,25.2473 -12.79186,45.71429 -28.57143,45.71429 -15.77956,0 -28.57142,-20.46699 -28.57142,-45.71429 0,-25.2473 12.79186,-45.714286 28.57142,-45.714286 15.77957,0 28.57143,20.466986 28.57143,45.714286 z"
         transform="translate(23.428271,85.785991)" />
      <path
         sodipodi:type="arc"
         style="fill:#00ffff;fill-opacity:0.09803922;stroke:#000000;stroke-width:1;stroke-linecap:round;stroke-miterlimit:4;stroke-opacity:1;stroke-dasharray:none;stroke-dashoffset:0"
         id="path3921"
         sodipodi:cx="374.28571"
         sodipodi:cy="162.87247"
         sodipodi:rx="34.285713"
         sodipodi:ry="43.57143"
         d="m 408.57142,162.87247 c 0,24.06383 -15.35024,43.57143 -34.28571,43.57143 -18.93548,0 -34.28572,-19.5076 -34.28572,-43.57143 0,-24.06384 15.35024,-43.57143 34.28572,-43.57143 18.93547,0 34.28571,19.50759 34.28571,43.57143 z"
         transform="translate(23.428271,85.785991)" />
      <path
         transform="translate(23.428271,85.785991)"
         style="fill:#00ffff;fill-opacity:1;stroke:#000000;stroke-width:1;stroke-linecap:round;stroke-miterlimit:4;stroke-opacity:1;stroke-dashoffset:0"
         d="M 315.71429,332.15819 430,315.01533 l -92.85714,28.57143 -11.42857,38.57143 z"
         id="rect3923"
         inkscape:connector-curvature="0"
         sodipodi:nodetypes="ccccc" />
      <path
         sodipodi:type="arc"
         style="fill:#008000;fill-opacity:0.09803922;stroke:#000000;stroke-width:1;stroke-linecap:round;stroke-miterlimit:4;stroke-opacity:1;stroke-dasharray:none;stroke-dashoffset:0"
         id="path3926"
         sodipodi:cx="510.71429"
         sodipodi:cy="107.87247"
         sodipodi:rx="36.42857"
         sodipodi:ry="31.428572"
         d="m 547.14286,107.87247 c 0,17.35752 -16.30962,31.42857 -36.42857,31.42857 -20.11894,0 -36.42857,-14.07105 -36.42857,-31.42857 0,-17.357524 16.30963,-31.428575 36.42857,-31.428575 20.11895,0 36.42857,14.071051 36.42857,31.428575 z"
         transform="translate(23.428271,85.785991)" />
      <path
         sodipodi:type="arc"
         style="fill:#008000;fill-opacity:0.09803922;stroke:#000000;stroke-width:1;stroke-linecap:round;stroke-miterlimit:4;stroke-opacity:1;stroke-dasharray:none;stroke-dashoffset:0"
         id="path3928"
         sodipodi:cx="520.71429"
         sodipodi:cy="185.72961"
         sodipodi:rx="37.857143"
         sodipodi:ry="47.857143"
         d="m 558.57144,185.72961 c 0,26.43077 -16.94922,47.85715 -37.85715,47.85715 -20.90792,0 -37.85714,-21.42638 -37.85714,-47.85715 0,-26.43077 16.94922,-47.85714 37.85714,-47.85714 20.90793,0 37.85715,21.42637 37.85715,47.85714 z"
         transform="translate(23.428271,85.785991)" />
      <path
         sodipodi:type="arc"
         style="fill:#008000;fill-opacity:0.09803922;stroke:#000000;stroke-width:1;stroke-linecap:round;stroke-miterlimit:4;stroke-opacity:1;stroke-dasharray:none;stroke-dashoffset:0"
         id="path3930"
         sodipodi:cx="525.71429"
         sodipodi:cy="139.30104"
         sodipodi:rx="54.285713"
         sodipodi:ry="20"
         d="m 580.00001,139.30104 c 0,11.0457 -24.30454,20 -54.28572,20 -29.98117,0 -54.28571,-8.9543 -54.28571,-20 0,-11.04569 24.30454,-20 54.28571,-20 29.98118,0 54.28572,8.95431 54.28572,20 z"
         transform="translate(23.428271,85.785991)" />
      <path
         sodipodi:type="arc"
         style="fill:#008000;fill-opacity:0.09803922;stroke:#000000;stroke-width:1;stroke-linecap:round;stroke-miterlimit:4;stroke-opacity:1;stroke-dasharray:none;stroke-dashoffset:0"
         id="path3932"
         sodipodi:cx="567.14288"
         sodipodi:cy="100.01532"
         sodipodi:rx="47.142857"
         sodipodi:ry="35"
         d="m 614.28574,100.01532 c 0,19.32997 -21.10658,35 -47.14286,35 -26.03628,0 -47.14285,-15.67003 -47.14285,-35 0,-19.329966 21.10657,-35 47.14285,-35 26.03628,0 47.14286,15.670034 47.14286,35 z"
         transform="translate(23.428271,85.785991)" />
      <path
         sodipodi:type="arc"
         style="fill:#008000;fill-opacity:0.09803922;stroke:#000000;stroke-width:1;stroke-linecap:round;stroke-miterlimit:4;stroke-opacity:1;stroke-dasharray:none;stroke-dashoffset:0"
         id="path3934"
         sodipodi:cx="563.57141"
         sodipodi:cy="205.72961"
         sodipodi:rx="37.857143"
         sodipodi:ry="23.571428"
         d="m 601.42855,205.72961 c 0,13.01814 -16.94922,23.57143 -37.85714,23.57143 -20.90792,0 -37.85714,-10.55329 -37.85714,-23.57143 0,-13.01814 16.94922,-23.57142 37.85714,-23.57142 20.90792,0 37.85714,10.55328 37.85714,23.57142 z"
         transform="translate(23.428271,85.785991)" />
      <path
         sodipodi:type="arc"
         style="fill:#008000;fill-opacity:0.09803922;stroke:#000000;stroke-width:1;stroke-linecap:round;stroke-miterlimit:4;stroke-opacity:1;stroke-dasharray:none;stroke-dashoffset:0"
         id="path3936"
         sodipodi:cx="568.57141"
         sodipodi:cy="156.44389"
         sodipodi:rx="34.285713"
         sodipodi:ry="32.857143"
         d="m 602.85712,156.44389 c 0,18.1465 -15.35023,32.85715 -34.28571,32.85715 -18.93548,0 -34.28571,-14.71065 -34.28571,-32.85715 0,-18.1465 15.35023,-32.85714 34.28571,-32.85714 18.93548,0 34.28571,14.71064 34.28571,32.85714 z"
         transform="translate(23.428271,85.785991)" />
      <path
         sodipodi:type="arc"
         style="fill:#008000;fill-opacity:0.09803922;stroke:#000000;stroke-width:1;stroke-linecap:round;stroke-miterlimit:4;stroke-opacity:1;stroke-dasharray:none;stroke-dashoffset:0"
         id="path3938"
         sodipodi:cx="598.57141"
         sodipodi:cy="199.30104"
         sodipodi:rx="40"
         sodipodi:ry="31.428572"
         d="m 638.57141,199.30104 c 0,17.35752 -17.90861,31.42857 -40,31.42857 -22.09139,0 -40,-14.07105 -40,-31.42857 0,-17.35752 17.90861,-31.42857 40,-31.42857 22.09139,0 40,14.07105 40,31.42857 z"
         transform="translate(23.428271,85.785991)" />
      <path
         sodipodi:type="arc"
         style="fill:#008000;fill-opacity:0.09803922;stroke:#000000;stroke-width:1;stroke-linecap:round;stroke-miterlimit:4;stroke-opacity:1;stroke-dasharray:none;stroke-dashoffset:0"
         id="path3940"
         sodipodi:cx="602.14288"
         sodipodi:cy="122.87247"
         sodipodi:rx="27.857143"
         sodipodi:ry="56.42857"
         d="m 630.00003,122.87247 c 0,31.16464 -12.47207,56.42857 -27.85715,56.42857 -15.38507,0 -27.85714,-25.26393 -27.85714,-56.42857 0,-31.164642 12.47207,-56.428573 27.85714,-56.428573 15.38508,0 27.85715,25.263931 27.85715,56.428573 z"
         transform="translate(23.428271,85.785991)" />
      <path
         sodipodi:type="arc"
         style="fill:#008000;fill-opacity:0.09803922;stroke:#000000;stroke-width:1;stroke-linecap:round;stroke-miterlimit:4;stroke-opacity:1;stroke-dasharray:none;stroke-dashoffset:0"
         id="path3942"
         sodipodi:cx="623.57141"
         sodipodi:cy="168.58675"
         sodipodi:rx="19.285715"
         sodipodi:ry="46.42857"
         d="m 642.85713,168.58675 c 0,25.64179 -8.63451,46.42857 -19.28572,46.42857 -10.65121,0 -19.28571,-20.78678 -19.28571,-46.42857 0,-25.64179 8.6345,-46.42857 19.28571,-46.42857 10.65121,0 19.28572,20.78678 19.28572,46.42857 z"
         transform="translate(23.428271,85.785991)" />
      <path
         transform="translate(23.428271,85.785991)"
         style="fill:#00ff00;fill-opacity:1;stroke:#000000;stroke-width:1;stroke-linecap:round;stroke-miterlimit:4;stroke-opacity:1;stroke-dashoffset:0"
         d="m 568.57145,327.87247 38.57144,-28.57143 1.42857,72.85714 -24.28572,28.57143 z"
         id="rect3944"
         inkscape:connector-curvature="0"
         sodipodi:nodetypes="ccccc" />
    </g>
  </g>
</svg>
